<svg width="33" height="32" viewBox="0 0 33 32" fill="none" xmlns="http://www.w3.org/2000/svg">
<path d="M28.3333 6H20.3333C19.5571 6 18.7916 6.18073 18.0973 6.52786C17.403 6.875 16.7991 7.37902 16.3333 8C15.8676 7.37902 15.2637 6.875 14.5694 6.52786C13.8751 6.18073 13.1096 6 12.3333 6H4.33334C3.80291 6 3.2942 6.21071 2.91913 6.58579C2.54406 6.96086 2.33334 7.46957 2.33334 8V24C2.33334 24.5304 2.54406 25.0391 2.91913 25.4142C3.2942 25.7893 3.80291 26 4.33334 26H12.3333C13.129 26 13.8921 26.3161 14.4547 26.8787C15.0173 27.4413 15.3333 28.2044 15.3333 29C15.3333 29.2652 15.4387 29.5196 15.6262 29.7071C15.8138 29.8946 16.0681 30 16.3333 30C16.5986 30 16.8529 29.8946 17.0405 29.7071C17.228 29.5196 17.3333 29.2652 17.3333 29C17.3333 28.2044 17.6494 27.4413 18.212 26.8787C18.7746 26.3161 19.5377 26 20.3333 26H28.3333C28.8638 26 29.3725 25.7893 29.7476 25.4142C30.1226 25.0391 30.3333 24.5304 30.3333 24V8C30.3333 7.46957 30.1226 6.96086 29.7476 6.58579C29.3725 6.21071 28.8638 6 28.3333 6ZM12.3333 24H4.33334V8H12.3333C13.129 8 13.8921 8.31607 14.4547 8.87868C15.0173 9.44129 15.3333 10.2044 15.3333 11V25C14.4687 24.3493 13.4155 23.9983 12.3333 24ZM28.3333 24H20.3333C19.2512 23.9983 18.198 24.3493 17.3333 25V11C17.3333 10.2044 17.6494 9.44129 18.212 8.87868C18.7746 8.31607 19.5377 8 20.3333 8H28.3333V24Z" fill="#00ADB5"/>
</svg>
