<svg width="33" height="32" viewBox="0 0 33 32" fill="none" xmlns="http://www.w3.org/2000/svg">
<path d="M30.6666 26.0001H28.6666V12.0001C28.6666 11.4696 28.4559 10.9609 28.0808 10.5859C27.7058 10.2108 27.1971 10.0001 26.6666 10.0001H18.6666V4.00008C18.6669 3.63791 18.5687 3.28247 18.3828 2.9717C18.1968 2.66094 17.9299 2.40651 17.6106 2.23557C17.2913 2.06463 16.9316 1.9836 16.5698 2.00112C16.2081 2.01865 15.8579 2.13407 15.5566 2.33508L5.55663 9.00008C5.2823 9.1831 5.05749 9.43112 4.90221 9.72206C4.74693 10.013 4.666 10.3378 4.66663 10.6676V26.0001H2.66663C2.40141 26.0001 2.14706 26.1054 1.95952 26.293C1.77198 26.4805 1.66663 26.7349 1.66663 27.0001C1.66663 27.2653 1.77198 27.5197 1.95952 27.7072C2.14706 27.8947 2.40141 28.0001 2.66663 28.0001H30.6666C30.9318 28.0001 31.1862 27.8947 31.3737 27.7072C31.5613 27.5197 31.6666 27.2653 31.6666 27.0001C31.6666 26.7349 31.5613 26.4805 31.3737 26.293C31.1862 26.1054 30.9318 26.0001 30.6666 26.0001ZM26.6666 12.0001V26.0001H18.6666V12.0001H26.6666ZM6.66663 10.6676L16.6666 4.00008V26.0001H6.66663V10.6676ZM14.6666 14.0001V16.0001C14.6666 16.2653 14.5613 16.5197 14.3737 16.7072C14.1862 16.8947 13.9318 17.0001 13.6666 17.0001C13.4014 17.0001 13.1471 16.8947 12.9595 16.7072C12.772 16.5197 12.6666 16.2653 12.6666 16.0001V14.0001C12.6666 13.7349 12.772 13.4805 12.9595 13.293C13.1471 13.1054 13.4014 13.0001 13.6666 13.0001C13.9318 13.0001 14.1862 13.1054 14.3737 13.293C14.5613 13.4805 14.6666 13.7349 14.6666 14.0001ZM10.6666 14.0001V16.0001C10.6666 16.2653 10.5613 16.5197 10.3737 16.7072C10.1862 16.8947 9.93184 17.0001 9.66663 17.0001C9.40141 17.0001 9.14706 16.8947 8.95952 16.7072C8.77198 16.5197 8.66663 16.2653 8.66663 16.0001V14.0001C8.66663 13.7349 8.77198 13.4805 8.95952 13.293C9.14706 13.1054 9.40141 13.0001 9.66663 13.0001C9.93184 13.0001 10.1862 13.1054 10.3737 13.293C10.5613 13.4805 10.6666 13.7349 10.6666 14.0001ZM10.6666 21.0001V23.0001C10.6666 23.2653 10.5613 23.5197 10.3737 23.7072C10.1862 23.8947 9.93184 24.0001 9.66663 24.0001C9.40141 24.0001 9.14706 23.8947 8.95952 23.7072C8.77198 23.5197 8.66663 23.2653 8.66663 23.0001V21.0001C8.66663 20.7349 8.77198 20.4805 8.95952 20.293C9.14706 20.1054 9.40141 20.0001 9.66663 20.0001C9.93184 20.0001 10.1862 20.1054 10.3737 20.293C10.5613 20.4805 10.6666 20.7349 10.6666 21.0001ZM14.6666 21.0001V23.0001C14.6666 23.2653 14.5613 23.5197 14.3737 23.7072C14.1862 23.8947 13.9318 24.0001 13.6666 24.0001C13.4014 24.0001 13.1471 23.8947 12.9595 23.7072C12.772 23.5197 12.6666 23.2653 12.6666 23.0001V21.0001C12.6666 20.7349 12.772 20.4805 12.9595 20.293C13.1471 20.1054 13.4014 20.0001 13.6666 20.0001C13.9318 20.0001 14.1862 20.1054 14.3737 20.293C14.5613 20.4805 14.6666 20.7349 14.6666 21.0001Z" fill="white"/>
</svg>
